# xmcd
#
# Track frame offsets: 
#        150
#        24360
#        50911
#        75945
#        92433
#        118546
#        132149
#        164331
#        188199
#
# Disc length: 2854 seconds
#
# Revision: 0
# Processed by: cddbd v1.5.2PL0 Copyright (c) Steve Scherf et al.
# Submitted via: ExactAudioCopy v1.3
#
DISCID=660b2409
DTITLE=Beano Mojohand - Beano Mojohand
DYEAR=2020
DGENRE=Blues
TTITLE0=Born Under a Bad Sign
TTITLE1=Crazy Woman
TTITLE2=Black Magic Woman
TTITLE3=Bring It
TTITLE4=As the Years Go Passing By
TTITLE5=Stepping Out
TTITLE6=How Blue Can You Get
TTITLE7=Wonder No More
TTITLE8=Lets Have a Natural Ball
EXTD=
EXTT0=
EXTT1=
EXTT2=
EXTT3=
EXTT4=
EXTT5=
EXTT6=
EXTT7=
EXTT8=
PLAYORDER=
